<?xml version="1.0" encoding="UTF-8" standalone="no"?>
<!-- Created with Inkscape (http://www.inkscape.org/) -->

<svg
   xmlns:dc="http://purl.org/dc/elements/1.1/"
   xmlns:cc="http://creativecommons.org/ns#"
   xmlns:rdf="http://www.w3.org/1999/02/22-rdf-syntax-ns#"
   xmlns:svg="http://www.w3.org/2000/svg"
   xmlns="http://www.w3.org/2000/svg"
   xmlns:sodipodi="http://sodipodi.sourceforge.net/DTD/sodipodi-0.dtd"
   xmlns:inkscape="http://www.inkscape.org/namespaces/inkscape"
   width="90mm"
   height="50mm"
   id="svg2985"
   version="1.1"
   inkscape:version="0.48.0 r9654"
   sodipodi:docname="Logo.svg"
   inkscape:export-filename="/home/islington/Projects/Current/Polka/Logo.png"
   inkscape:export-xdpi="90"
   inkscape:export-ydpi="90">
  <defs
     id="defs3">
    <inkscape:path-effect
       effect="vonkoch"
       id="path-effect3000"
       is_visible="true"
       ref_path="m -160.83333,10.498693 39.16666,0"
       generator="m -116.17159,24.036481 2.81841,-20.8942747 m -3.62164,-16.5107003 14.89149,0.61198"
       similar_only="false"
       nbgenerations="3"
       drawall="true"
       maxComplexity="5000"
       generator-nodetypes="cccc" />
  </defs>
  <sodipodi:namedview
     id="base"
     pagecolor="#ffffff"
     bordercolor="#666666"
     borderopacity="1.0"
     inkscape:pageopacity="0.0"
     inkscape:pageshadow="2"
     inkscape:zoom="0.5"
     inkscape:cx="393.50524"
     inkscape:cy="191.64249"
     inkscape:document-units="mm"
     inkscape:current-layer="layer1"
     showgrid="false"
     inkscape:window-width="1280"
     inkscape:window-height="984"
     inkscape:window-x="-2"
     inkscape:window-y="19"
     inkscape:window-maximized="1" />
  <metadata
     id="metadata2989">
    <rdf:RDF>
      <cc:Work
         rdf:about="">
        <dc:format>image/svg+xml</dc:format>
        <dc:type
           rdf:resource="http://purl.org/dc/dcmitype/StillImage" />
        <dc:title></dc:title>
      </cc:Work>
    </rdf:RDF>
  </metadata>
  <g
     inkscape:label="Layer 1"
     inkscape:groupmode="layer"
     id="layer1">
    <rect
       style="fill:#ffffff;fill-opacity:1;stroke:none"
       id="rect4010"
       width="318.89764"
       height="177.16536"
       x="0"
       y="0" />
    <g
       id="g3120"
       transform="matrix(1.6406762,0,0,1.6406762,368.62312,648.54941)">
      <path
         transform="matrix(1.6094696,0,0,1.6094696,71.058321,-174.73546)"
         d="m -133.76103,-90.504021 c 0,4.474758 -3.62751,8.102266 -8.10227,8.102266 -4.47475,0 -8.10226,-3.627508 -8.10226,-8.102266 0,-4.474757 3.62751,-8.102265 8.10226,-8.102265 4.47476,0 8.10227,3.627508 8.10227,8.102265 z"
         sodipodi:ry="8.1022654"
         sodipodi:rx="8.1022654"
         sodipodi:cy="-90.504021"
         sodipodi:cx="-141.8633"
         id="path3122"
         style="fill:#339900;fill-opacity:0.58823529;stroke:none"
         sodipodi:type="arc" />
      <path
         style="fill:#0169c9;fill-opacity:0.58823529;stroke:none"
         d="m -185.25,-344.46875 c -1.78705,0.64254 -3.35112,1.91408 -4.375,3.6875 -1.47015,2.54637 -1.44019,5.53536 -0.1875,7.96875 l 0.0937,-0.0625 c 0.84811,-0.43318 1.63,-1.0012 2.375,-1.78125 1.7638,-1.82534 2.59372,-3.91661 2.59375,-6.5625 -1e-5,-1.14752 -0.1476,-2.20393 -0.46875,-3.15625 l -0.0312,-0.0937 z m 6.5,0.40625 c 0.15706,0.91312 0.24999,1.86863 0.25,2.84375 -4e-5,4.2066 -1.47621,7.94193 -4.34375,10.9375 -0.59249,0.62451 -1.22517,1.15836 -1.875,1.65625 3.58782,1.02939 7.5494,-0.46521 9.5,-3.84375 2.29879,-3.98162 0.91913,-9.07621 -3.0625,-11.375 -0.15346,-0.0886 -0.31222,-0.14097 -0.46875,-0.21875 z m -3.34375,0.71875 c 0.11419,0.71028 0.34374,1.38121 0.34375,2.125 -3e-5,3.30729 -1.13887,6.27852 -3.40625,8.625 -0.46248,0.48424 -1.02226,0.76907 -1.53125,1.15625 0.0982,0.0806 0.17731,0.174 0.28125,0.25 0.46397,-0.36664 0.94339,-0.70131 1.375,-1.15625 2.38238,-2.48875 3.53121,-5.34716 3.53125,-8.875 -1e-5,-0.73184 -0.14082,-1.40914 -0.25,-2.09375 -0.11459,-0.013 -0.23032,-0.0242 -0.34375,-0.0312 z"
         id="path3124"
         inkscape:connector-curvature="0" />
      <path
         style="fill:#f0a513;fill-opacity:0.58823529;stroke:none"
         d="m -198.0555,-346.57842 c -2.526,-1.03691 -5.4143,0.17024 -6.45121,2.69625 -1.03691,2.526 0.17024,5.41429 2.69625,6.4512 2.526,1.03691 5.41429,-0.17024 6.4512,-2.69624 1.03691,-2.526 -0.17024,-5.4143 -2.69624,-6.45121 z"
         id="path3126"
         inkscape:connector-curvature="0" />
      <path
         style="fill:#f44800;fill-opacity:0.58823529;stroke:none"
         d="m -198.15625,-497.90625 c -1.05783,-0.0567 -2.05094,0.60298 -2.40625,1.625 l 4.5625,0 c -0.2573,-0.73037 -0.88186,-1.32086 -1.6875,-1.53125 -0.16113,-0.0421 -0.3087,-0.0852 -0.46875,-0.0937 z"
         transform="translate(0,139.65359)"
         id="path3128"
         inkscape:connector-curvature="0" />
      <path
         style="fill:#339900;fill-opacity:0.58823529;stroke:none"
         d="m -194.52734,-348.19519 c 0.61378,0.0749 1.17204,-0.36204 1.24689,-0.97581 0.0749,-0.61379 -0.36203,-1.17204 -0.97582,-1.24689 -0.61377,-0.0749 -1.17202,0.36202 -1.24687,0.97582 -0.0749,0.61377 0.36203,1.17203 0.9758,1.24688 z"
         id="path3130"
         inkscape:connector-curvature="0" />
      <path
         style="fill:#816647;fill-opacity:0.58823529;stroke:none"
         d="m -188.93313,-346.1043 c 0.14095,-0.64743 -0.26962,-1.28653 -0.91705,-1.42749 -0.64742,-0.14094 -1.28653,0.26962 -1.42747,0.91706 -0.14096,0.64742 0.26963,1.28652 0.91705,1.42747 0.64742,0.14096 1.28653,-0.26962 1.42747,-0.91704 z"
         id="path3132"
         inkscape:connector-curvature="0" />
      <path
         style="fill:#339900;fill-opacity:0.46994533;stroke:none"
         d="m -186.11306,-352.9028 c -0.88518,-0.32155 -1.86342,0.13535 -2.18498,1.02052 -0.32155,0.88517 0.13535,1.86342 1.02052,2.18498 0.88518,0.32155 1.86342,-0.13535 2.18497,-1.02052 0.32156,-0.88517 -0.13534,-1.86342 -1.02051,-2.18498 z"
         id="path3134"
         inkscape:connector-curvature="0" />
      <path
         style="fill:#ff9bff;fill-opacity:0.58823529;stroke:none"
         d="m -185.26552,-356.79847 c 0.14096,-0.64742 -0.26962,-1.28653 -0.91704,-1.42747 -0.64742,-0.14096 -1.28652,0.26962 -1.42747,0.91704 -0.14096,0.64743 0.26962,1.28652 0.91705,1.42748 0.64742,0.14095 1.28651,-0.26963 1.42746,-0.91705 z"
         id="path3136"
         inkscape:connector-curvature="0" />
      <path
         style="fill:#339900;fill-opacity:0.58823529;stroke:none"
         d="m -181.2893,-355.63903 c -0.44645,-0.14172 -0.92324,0.10535 -1.06494,0.55175 -0.14172,0.44643 0.10534,0.92322 0.55173,1.06494 0.44644,0.14171 0.92322,-0.10535 1.06495,-0.55175 0.14171,-0.44643 -0.10534,-0.92322 -0.55174,-1.06494 z"
         id="path3138"
         inkscape:connector-curvature="0" />
      <path
         style="fill:#d40000;fill-opacity:0.58823529;stroke:none"
         d="m -196.96222,-365.42397 c -1.06101,2.02553 -0.27913,4.52769 1.7464,5.58871 2.02553,1.06103 4.52768,0.27913 5.58871,-1.74639 1.06102,-2.02554 0.27914,-4.52769 -1.74639,-5.58871 -2.02554,-1.06103 -4.52769,-0.27915 -5.58872,1.74639 z"
         id="path3140"
         inkscape:connector-curvature="0" />
      <path
         style="fill:#6600cc;fill-opacity:0.58823529;stroke:none"
         d="m -200.96452,-367.00634 c -1.15691,-0.42027 -2.43546,0.1769 -2.85574,1.33381 -0.42026,1.15691 0.1769,2.43548 1.33381,2.85574 1.15691,0.42028 2.43548,-0.17689 2.85574,-1.3338 0.42028,-1.15692 -0.17688,-2.43548 -1.33381,-2.85575 z"
         id="path3142"
         inkscape:connector-curvature="0" />
      <path
         style="fill:#0197fd;fill-opacity:0.58823529;stroke:none"
         d="m -199.43421,-370.48237 c 0.14096,-0.64742 -0.26962,-1.28653 -0.91704,-1.42748 -0.64743,-0.14095 -1.28653,0.26963 -1.42749,0.91705 -0.14094,0.64742 0.26964,1.28652 0.91706,1.42747 0.64741,0.14096 1.28652,-0.26962 1.42747,-0.91704 z"
         id="path3144"
         inkscape:connector-curvature="0" />
      <path
         style="fill:#339900;fill-opacity:0.58823529;stroke:none"
         d="m -195.45801,-371.51422 c -0.44643,-0.14172 -0.92322,0.10535 -1.06494,0.55175 -0.14172,0.44643 0.10534,0.92322 0.55175,1.06494 0.44643,0.1417 0.92322,-0.10535 1.06494,-0.55175 0.14171,-0.44644 -0.10535,-0.92322 -0.55175,-1.06494 z"
         id="path3146"
         inkscape:connector-curvature="0" />
      <path
         style="fill:#6699cc;fill-opacity:0.58823529;stroke:none"
         d="m -199.16245,-376.22753 c -0.37176,0.7867 -0.0354,1.72582 0.75131,2.09759 0.78671,0.37176 1.72584,0.0354 2.0976,-0.75132 0.37176,-0.7867 0.0354,-1.72583 -0.75133,-2.09759 -0.78669,-0.37176 -1.72582,-0.0354 -2.09758,0.75132 z"
         id="path3148"
         inkscape:connector-curvature="0" />
      <path
         style="fill:#339900;fill-opacity:0.58823529;stroke:none"
         d="m -202.10698,-377.46091 c -0.44643,-0.14172 -0.92322,0.10534 -1.06493,0.55175 -0.14172,0.44643 0.10534,0.92322 0.55174,1.06492 0.44645,0.14172 0.92322,-0.10534 1.06494,-0.55174 0.14172,-0.44643 -0.10534,-0.92322 -0.55175,-1.06493 z"
         id="path3150"
         inkscape:connector-curvature="0" />
      <path
         style="fill:#816647;fill-opacity:0.58823529;stroke:none"
         d="m -202.05808,-380.27935 c -0.129,0.30491 0.0135,0.65673 0.31844,0.78578 0.30492,0.129 0.65672,-0.0135 0.78577,-0.31844 0.129,-0.30492 -0.0135,-0.65672 -0.31843,-0.78578 -0.30492,-0.129 -0.65673,0.0135 -0.78578,0.31844 z"
         id="path3152"
         inkscape:connector-curvature="0" />
      <path
         inkscape:connector-curvature="0"
         id="path3154"
         style="font-size:72px;font-style:normal;font-variant:normal;font-weight:normal;font-stretch:normal;line-height:125%;letter-spacing:0px;word-spacing:0px;fill:#333333;fill-opacity:1;stroke:none;font-family:Sawasdee;-inkscape-font-specification:Sawasdee"
         d="m -212.1689,-302.55713 0,-52.55859 18.63281,0 c 3.77341,5e-5 6.97263,1.35942 9.59766,4.07812 2.62496,2.7188 3.93746,5.98833 3.9375,9.8086 -4e-5,3.86722 -1.31254,7.1719 -3.9375,9.91406 -2.60159,2.74221 -5.76565,4.1133 -9.49219,4.11328 l -15.57422,0 0,24.64453 -3.16406,0 m 3.16406,-27.94922 15.57422,0 c 2.78904,3e-5 5.17966,-1.04294 7.17188,-3.1289 2.01559,-2.08591 3.0234,-4.61716 3.02343,-7.59375 -3e-5,-2.97652 -1.00784,-5.50777 -3.02343,-7.59375 -2.01566,-2.10933 -4.44144,-3.16402 -7.27735,-3.16407 l -15.46875,0 0,21.48047" />
      <path
         inkscape:connector-curvature="0"
         id="path3156"
         style="font-size:72px;font-style:normal;font-variant:normal;font-weight:normal;font-stretch:normal;line-height:125%;letter-spacing:0px;word-spacing:0px;fill:#333333;fill-opacity:1;stroke:none;font-family:Sawasdee;-inkscape-font-specification:Sawasdee"
         d="m -157.26635,-338.76807 c 2.46092,4e-5 4.81638,0.48051 7.06641,1.44141 2.24997,0.96097 4.19528,2.26175 5.83594,3.90234 1.64059,1.64066 2.94137,3.59769 3.90234,5.8711 0.9609,2.27346 1.44137,4.65236 1.44141,7.13672 -4e-5,2.50782 -0.48051,4.89845 -1.44141,7.17187 -0.96097,2.27345 -2.26175,4.23048 -3.90234,5.87109 -1.64066,1.6172 -3.58597,2.91798 -5.83594,3.90235 -2.25003,0.96094 -4.60549,1.4414 -7.06641,1.4414 -5.03908,0 -9.33985,-1.79296 -12.90234,-5.3789 -3.56251,-3.58593 -5.34375,-7.92186 -5.34375,-13.00781 0,-3.32811 0.80859,-6.39842 2.42578,-9.21094 1.64062,-2.83591 3.85546,-5.06247 6.64453,-6.67969 2.81249,-1.64059 5.87108,-2.4609 9.17578,-2.46094 m -15.11718,18.35157 c -1e-5,4.19532 1.47655,7.79297 4.42968,10.79296 2.97655,2.97657 6.56249,4.46485 10.75782,4.46485 4.19528,0 7.7695,-1.48828 10.72265,-4.46485 2.97653,-2.99999 4.46481,-6.59764 4.46485,-10.79296 -4e-5,-4.17186 -1.48832,-7.74607 -4.46485,-10.72266 -2.95315,-2.97653 -6.52737,-4.46481 -10.72265,-4.46484 -4.19533,3e-5 -7.78127,1.48831 -10.75782,4.46484 -2.95313,2.97659 -4.42969,6.5508 -4.42968,10.72266" />
      <path
         inkscape:connector-curvature="0"
         id="path3158"
         style="font-size:72px;font-style:normal;font-variant:normal;font-weight:normal;font-stretch:normal;line-height:125%;letter-spacing:0px;word-spacing:0px;fill:#333333;fill-opacity:1;stroke:none;font-family:Sawasdee;-inkscape-font-specification:Sawasdee"
         d="m -123.30386,-302.55713 -3.16406,0 0,-52.48828 3.16406,0 0,52.48828" />
      <path
         inkscape:connector-curvature="0"
         id="path3160"
         style="font-size:72px;font-style:normal;font-variant:normal;font-weight:normal;font-stretch:normal;line-height:125%;letter-spacing:0px;word-spacing:0px;fill:#333333;fill-opacity:1;stroke:none;font-family:Sawasdee;-inkscape-font-specification:Sawasdee"
         d="m -103.0943,-302.55713 -3.16406,0 0,-52.48828 3.16406,0 0,31.14844 15.785157,-14.3086 4.746094,0 -15.046875,13.64063 18.878906,22.00781 -4.078125,0 -17.085938,-19.89844 -3.199219,2.84766 0,17.05078" />
      <path
         inkscape:connector-curvature="0"
         id="path3162"
         style="font-size:72px;font-style:normal;font-variant:normal;font-weight:normal;font-stretch:normal;line-height:125%;letter-spacing:0px;word-spacing:0px;fill:#333333;fill-opacity:1;stroke:none;font-family:Sawasdee;-inkscape-font-specification:Sawasdee"
         d="m -42.816574,-302.55713 -3.375,0 c -0.421904,-1.33594 -0.632841,-2.90625 -0.632813,-4.71094 l 0,-2.77734 c -1.687526,2.34375 -3.714868,4.27735 -6.082031,5.80078 -2.34377,1.52344 -4.828142,2.28516 -7.453125,2.28516 -1.89845,0 -3.597667,-0.29297 -5.097656,-0.87891 -1.476571,-0.60937 -2.648445,-1.40625 -3.515625,-2.39062 -0.867193,-0.98438 -1.523442,-2.02734 -1.96875,-3.12891 -0.445316,-1.12499 -0.667972,-2.26171 -0.667969,-3.41016 -3e-6,-1.1953 0.175778,-2.29686 0.527344,-3.30468 0.374995,-1.0078 0.843745,-1.86327 1.40625,-2.56641 0.585931,-0.72655 1.347649,-1.37108 2.285156,-1.93359 0.960929,-0.58592 1.874991,-1.05467 2.742188,-1.40625 0.890613,-0.37499 1.992175,-0.69139 3.304687,-0.94922 1.312485,-0.28123 2.449203,-0.48045 3.410156,-0.59766 0.96092,-0.1406 2.156231,-0.24607 3.585938,-0.31641 1.429665,-0.0703 2.554664,-0.10544 3.375,-0.10546 0.843725,-0.0234 1.91013,-0.0351 3.199219,-0.0352 l 0.949218,0 c -0.117215,-3.86716 -1.265652,-6.94919 -3.445312,-9.24609 -2.156273,-2.29685 -4.652364,-3.44528 -7.488281,-3.44532 -1.664079,4e-5 -3.292983,0.43363 -4.886719,1.30078 -1.570324,0.86722 -2.941416,2.13285 -4.113281,3.79688 l -2.496094,-1.65234 c 1.42968,-2.2031 3.152335,-3.85544 5.167969,-4.95704 2.015612,-1.10152 4.124984,-1.6523 6.328125,-1.65234 1.78123,4e-5 3.492166,0.36332 5.132812,1.08984 1.664038,0.70316 3.152318,1.71098 4.464844,3.02344 1.312472,1.2891 2.367158,2.95316 3.164062,4.99219 0.820282,2.03909 1.253875,4.28909 1.300782,6.75 l 0,15.71484 c -3.2e-5,2.03907 0.292937,3.60938 0.878906,4.71094 m -17.542969,-2.53125 c 2.695295,0 5.308574,-0.90234 7.839844,-2.70703 2.531225,-1.80468 4.42966,-3.86718 5.695312,-6.1875 l 0,-6.75 c -1.101589,0.0235 -2.02737,0.0469 -2.777343,0.0703 -0.726588,0.0235 -1.734399,0.082 -3.023438,0.17578 -1.265646,0.0703 -2.34377,0.16408 -3.234375,0.28125 -0.890643,0.0938 -1.933611,0.25783 -3.128906,0.49219 -1.17189,0.23439 -2.167983,0.50392 -2.988281,0.80859 -0.820325,0.28127 -1.675793,0.65627 -2.566407,1.125 -0.867197,0.44533 -1.570321,0.94924 -2.109375,1.51172 -0.53907,0.53908 -0.984382,1.19533 -1.335937,1.96875 -0.328132,0.77345 -0.492194,1.6172 -0.492188,2.53125 -6e-6,1.68751 0.703118,3.22267 2.109375,4.60547 1.40624,1.38282 3.410144,2.07422 6.011719,2.07422" />
    </g>
  </g>
</svg>
